<svg xmlns="http://www.w3.org/2000/svg" width="46" height="46" viewBox="0 0 46 46">
  <g id="roboticsurgery" transform="translate(-1840 -2439)">
    <rect id="Rectangle_384" data-name="Rectangle 384" width="46" height="46" rx="3" transform="translate(1840 2439)" fill="#fff" opacity="0"/>
    <g id="noun-robotic-surgery-2463678" transform="translate(1845.652 2444.732)">
      <path id="Path_3737" data-name="Path 3737" d="M123.6,490.416H89.911a.306.306,0,0,1-.306-.306v-1.225a1.072,1.072,0,0,1,1.078-1.072h32.158a1.072,1.072,0,0,1,1.072,1.072v1.225a.306.306,0,0,1-.312.306ZM90.217,489.8h33.076v-.919a.46.46,0,0,0-.459-.459H90.682a.459.459,0,0,0-.459.459Z" transform="translate(-89.605 -456.114)" fill="#0183a9" stroke="#0183a9" stroke-width="0.3"/>
      <path id="Path_3738" data-name="Path 3738" d="M148.435,411.214H138.022a.306.306,0,0,1-.276-.441l2.554-5.206h0a1.064,1.064,0,0,1,.953-.612H145.2a1.064,1.064,0,0,1,.952.612l2.554,5.206a.306.306,0,0,1-.276.441Zm-9.923-.613h9.429l-2.34-4.778h0a.454.454,0,0,0-.4-.27h-3.957a.453.453,0,0,0-.4.27Z" transform="translate(-134.347 -379.056)" fill="#0183a9" stroke="#0183a9" stroke-width="0.3"/>
      <path id="Path_3739" data-name="Path 3739" d="M200.205,426.83a1.225,1.225,0,1,1,.866-.359A1.225,1.225,0,0,1,200.205,426.83Zm0-1.838a.612.612,0,1,0,.433.179A.613.613,0,0,0,200.205,424.993Z" transform="translate(-191.323 -397.122)" fill="#0183a9" stroke="#0183a9" stroke-width="0.3"/>
      <path id="Path_3740" data-name="Path 3740" d="M103.527,211.443a2.913,2.913,0,1,1,2.06-.851,2.909,2.909,0,0,1-2.06.851Zm0-5.206a2.3,2.3,0,1,0,1.627.672,2.3,2.3,0,0,0-1.627-.672Z" transform="translate(-99.853 -193.68)" fill="#0183a9" stroke="#0183a9" stroke-width="0.3"/>
      <path id="Path_3741" data-name="Path 3741" d="M242.914,39.589a2.3,2.3,0,1,1,1.627-.672,2.3,2.3,0,0,1-1.627.672Zm0-3.981a1.687,1.687,0,1,0,1.194.492,1.685,1.685,0,0,0-1.194-.492Z" transform="translate(-230.052 -34.995)" fill="#0183a9" stroke="#0183a9" stroke-width="0.3"/>
      <path id="Path_3742" data-name="Path 3742" d="M165.994,281.547a.307.307,0,0,1-.273-.168l-4.634-9.212a.307.307,0,0,1,.548-.276l4.631,9.212a.306.306,0,0,1-.273.444Z" transform="translate(-156.054 -255.15)" fill="#0183a9" stroke="#0183a9" stroke-width="0.3"/>
      <path id="Path_3743" data-name="Path 3743" d="M139.021,287.974a.306.306,0,0,1-.273-.165l-3.932-7.586a.307.307,0,0,1,.545-.282l3.929,7.586a.306.306,0,0,1-.273.447Z" transform="translate(-131.62 -262.64)" fill="#0183a9" stroke="#0183a9" stroke-width="0.3"/>
      <path id="Path_3744" data-name="Path 3744" d="M157.058,99.675a.306.306,0,0,1-.233-.505L164,90.839a.306.306,0,1,1,.462.4l-7.17,8.333a.306.306,0,0,1-.233.1Z" transform="translate(-152.051 -86.811)" fill="#0183a9" stroke="#0183a9" stroke-width="0.3"/>
      <path id="Path_3745" data-name="Path 3745" d="M134.734,88.734a.306.306,0,0,1-.23-.518l7.675-8.841a.306.306,0,0,1,.462.4l-7.678,8.841a.306.306,0,0,1-.23.116Z" transform="translate(-131.283 -76.177)" fill="#0183a9" stroke="#0183a9" stroke-width="0.3"/>
      <path id="Path_3746" data-name="Path 3746" d="M286.771,93.7a.306.306,0,0,1-.211-.086l-4.217-4.055a.306.306,0,1,1,.426-.441l4.223,4.052a.306.306,0,0,1-.211.527Z" transform="translate(-268.763 -85.249)" fill="#0183a9" stroke="#0183a9" stroke-width="0.3"/>
      <path id="Path_3747" data-name="Path 3747" d="M300.641,80.136a.306.306,0,0,1-.208-.083l-4.214-3.972a.307.307,0,1,1,.419-.447l4.214,3.972a.306.306,0,0,1-.208.53Z" transform="translate(-281.665 -72.712)" fill="#0183a9" stroke="#0183a9" stroke-width="0.3"/>
      <path id="Path_3748" data-name="Path 3748" d="M124.808,231.2a1.3,1.3,0,1,1,.92-.381A1.3,1.3,0,0,1,124.808,231.2Zm0-1.991a.689.689,0,1,0,.689.689.689.689,0,0,0-.689-.689Z" transform="translate(-121.134 -215.041)" fill="#0183a9" stroke="#0183a9" stroke-width="0.3"/>
      <path id="Path_3749" data-name="Path 3749" d="M259.76,55.246a1.023,1.023,0,1,1,.723-.3A1.023,1.023,0,0,1,259.76,55.246Zm0-1.433a.41.41,0,1,0,.29.12.411.411,0,0,0-.29-.12Z" transform="translate(-246.897 -51.925)" fill="#0183a9" stroke="#0183a9" stroke-width="0.3"/>
      <path id="Path_3750" data-name="Path 3750" d="M331.375,126.117a.919.919,0,0,1-.649-.269l-.613-.613a.919.919,0,0,1,0-1.3l2.4-2.4a.941.941,0,0,1,1.3,0l.613.613a.919.919,0,0,1,0,1.3l-2.4,2.4A.917.917,0,0,1,331.375,126.117Zm-.217-.7h0a.306.306,0,0,0,.432,0l2.4-2.4h0a.306.306,0,0,0,0-.432l-.612-.613a.306.306,0,0,0-.432,0l-2.4,2.4h0a.306.306,0,0,0,0,.435Z" transform="translate(-313.027 -115.238)" fill="#0183a9" stroke="#0183a9" stroke-width="0.3"/>
      <path id="Path_3751" data-name="Path 3751" d="M389.4,150.636a.306.306,0,0,1-.306-.306l.067-2.276-2.058-.573a.307.307,0,0,1,.165-.591l2.291.637a.306.306,0,0,1,.223.306l-.077,2.514a.306.306,0,0,1-.306.288Z" transform="translate(-366.066 -139.047)" fill="#0183a9" stroke="#0183a9" stroke-width="0.3"/>
      <path id="Path_3752" data-name="Path 3752" d="M354.428,182.88a.306.306,0,0,1-.306-.223l-.637-2.291h0a.307.307,0,1,1,.591-.165l.573,2.058,2.276-.067a.306.306,0,1,1,0,.613l-2.514.077Z" transform="translate(-335.003 -169.827)" fill="#0183a9" stroke="#0183a9" stroke-width="0.3"/>
      <path id="Path_3753" data-name="Path 3753" d="M257.62,342.783H231.7a.306.306,0,0,1,0-.613H257.62a.306.306,0,0,1,0,.613Z" transform="translate(-221.469 -320.667)" fill="#0183a9" stroke="#0183a9" stroke-width="0.3"/>
      <path id="Path_3754" data-name="Path 3754" d="M261.169,266.7a.306.306,0,0,1-.306-.306V264.95H243.712a.306.306,0,0,1-.159-.046l-6.19-3.819-.6.955,5.311,3.326a.307.307,0,1,1-.325.521l-5.568-3.473a.306.306,0,0,1-.1-.419l.919-1.488a.306.306,0,0,1,.423-.1l6.386,3.932h17.356a.306.306,0,0,1,.306.306v1.749a.306.306,0,0,1-.306.306Z" transform="translate(-225.79 -244.583)" fill="#0183a9" stroke="#0183a9" stroke-width="0.3"/>
      <path id="Path_3755" data-name="Path 3755" d="M297.99,269.977a.306.306,0,0,1-.27-.162c-1.672-3.124-5.161-2.144-5.206-2.144a.306.306,0,1,1-.171-.588c.04,0,4-1.115,5.9,2.45h0a.306.306,0,0,1-.257.444Z" transform="translate(-277.945 -250.683)" fill="#0183a9" stroke="#0183a9" stroke-width="0.3"/>
      <path id="Path_3756" data-name="Path 3756" d="M274.578,362.863h-3.5a.306.306,0,1,1,0-.613h3.5a.306.306,0,1,1,0,.613Z" transform="translate(-258.092 -339.341)" fill="#0183a9" stroke="#0183a9" stroke-width="0.3"/>
      <path id="Path_3757" data-name="Path 3757" d="M347,362.863h-1.81a.306.306,0,1,1,0-.613H347a.306.306,0,0,1,0,.613Z" transform="translate(-327.01 -339.341)" fill="#0183a9" stroke="#0183a9" stroke-width="0.3"/>
      <path id="Path_3758" data-name="Path 3758" d="M394.376,362.863h-1.81a.306.306,0,0,1,0-.613h1.81a.306.306,0,1,1,0,.613Z" transform="translate(-371.073 -339.341)" fill="#0183a9" stroke="#0183a9" stroke-width="0.3"/>
      <path id="Path_3759" data-name="Path 3759" d="M441.766,362.863h-1.81a.306.306,0,1,1,0-.613h1.81a.306.306,0,1,1,0,.613Z" transform="translate(-415.146 -339.341)" fill="#0183a9" stroke="#0183a9" stroke-width="0.3"/>
      <path id="Path_3760" data-name="Path 3760" d="M489.186,362.863h-1.81a.306.306,0,1,1,0-.613h1.81a.306.306,0,0,1,0,.613Z" transform="translate(-459.246 -339.341)" fill="#0183a9" stroke="#0183a9" stroke-width="0.3"/>
      <path id="Path_3761" data-name="Path 3761" d="M538.075,362.863h-3.32a.306.306,0,0,1,0-.613h3.32a.306.306,0,1,1,0,.613Z" transform="translate(-503.309 -339.341)" fill="#0183a9" stroke="#0183a9" stroke-width="0.3"/>
      <path id="Path_3762" data-name="Path 3762" d="M314.907,366.8H296.8a.306.306,0,0,1-.306-.306v-2.1a.306.306,0,0,1,.613,0v1.8H314.6v-1.614a.306.306,0,1,1,.613,0v1.92a.306.306,0,0,1-.306.306Z" transform="translate(-282.012 -341.044)" fill="#0183a9" stroke="#0183a9" stroke-width="0.3"/>
      <path id="Path_3763" data-name="Path 3763" d="M508.9,400.749a.306.306,0,0,1-.306-.306V396.9a.306.306,0,1,1,.612,0v3.543a.306.306,0,0,1-.306.306Z" transform="translate(-479.265 -371.28)" fill="#0183a9" stroke="#0183a9" stroke-width="0.3"/>
      <path id="Path_3764" data-name="Path 3764" d="M343.921,400.749a.306.306,0,0,1-.306-.306V396.9a.306.306,0,0,1,.613,0v3.543A.306.306,0,0,1,343.921,400.749Z" transform="translate(-325.834 -371.28)" fill="#0183a9" stroke="#0183a9" stroke-width="0.3"/>
      <path id="Path_3765" data-name="Path 3765" d="M485.343,432.555a2.08,2.08,0,1,1,1.47-.609A2.079,2.079,0,0,1,485.343,432.555Zm0-3.543a1.467,1.467,0,1,0,1.037.43A1.466,1.466,0,0,0,485.343,429.012Z" transform="translate(-455.706 -400.857)" fill="#0183a9" stroke="#0183a9" stroke-width="0.3"/>
      <path id="Path_3766" data-name="Path 3766" d="M320.362,432.555a2.079,2.079,0,1,1,1.47-.609A2.081,2.081,0,0,1,320.362,432.555Zm0-3.543a1.467,1.467,0,1,0,1.037.43A1.467,1.467,0,0,0,320.362,429.012Z" transform="translate(-302.275 -400.857)" fill="#0183a9" stroke="#0183a9" stroke-width="0.3"/>
      <path id="Path_3767" data-name="Path 3767" d="M426.431,409.24a.306.306,0,0,1-.306-.306v-4.686a.306.306,0,0,1,.612,0v4.686a.306.306,0,0,1-.306.306Z" transform="translate(-402.568 -378.115)" fill="#0183a9" stroke="#0183a9" stroke-width="0.3"/>
    </g>
  </g>
</svg>
