<svg xmlns="http://www.w3.org/2000/svg" width="46" height="46" viewBox="0 0 46 46">
  <g id="transplants" transform="translate(-1736 -2438)">
    <rect id="Rectangle_383" data-name="Rectangle 383" width="46" height="46" rx="3" transform="translate(1736 2438)" fill="#fff" opacity="0"/>
    <g id="noun-heart-transplant-4683225" transform="translate(1741.481 2444)">
      <path id="Path_3653" data-name="Path 3653" d="M134.182,208.407h-6.049a7.2,7.2,0,0,0-3.523.923,7.136,7.136,0,0,0-3.517-.923h-6.044a7.217,7.217,0,0,0-7.207,7.207v14.132a.393.393,0,1,0,.786,0V215.614a6.432,6.432,0,0,1,6.421-6.421H121.1a6.432,6.432,0,0,1,6.421,6.421v2.511H124.2a1.083,1.083,0,0,0-.791-.341h-2.83a.323.323,0,0,1,.309-.2h1.835a1.1,1.1,0,1,0,0-2.191h-.844l-.252-.314a1.7,1.7,0,0,1-.377-1.185,7.525,7.525,0,0,1,.267-1.436.909.909,0,0,0-.587-1.1c-.121-.042-.236-.079-.351-.126a.868.868,0,0,0-.713.031.833.833,0,0,0-.294.225.891.891,0,0,0-.708-.456l-.4-.031a.946.946,0,0,0-.7.236.881.881,0,0,0-.3.645v.288a.932.932,0,0,0-1.074-.446c-.115.037-.236.068-.367.1a.936.936,0,0,0-.561.466.878.878,0,0,0-.052.708,9.921,9.921,0,0,0,.66,1.462.266.266,0,0,1-.073.3,4.341,4.341,0,0,0-.734.938c-.016-.063-.031-.126-.042-.189a.955.955,0,0,0-.933-.723h-.634a.96.96,0,0,0-.959.959v1.782a1.8,1.8,0,0,1-.278.975,5.662,5.662,0,0,0-.912,3.785,3.288,3.288,0,0,0,1.012,1.987,17.773,17.773,0,0,0,.65,2.956.921.921,0,0,0,.865.613h.577a.92.92,0,0,0,.807-.477,9.623,9.623,0,0,0,5.1,2.6,2.986,2.986,0,0,0,.43.031,2.6,2.6,0,0,0,1.363-.377c1.971-1.216,1.976-3.963,1.976-5.326a5.24,5.24,0,0,0-.592-2.338l.042.016a1.221,1.221,0,0,0,.535.121,1.161,1.161,0,0,0,.881-.409h2.375v8.046a.393.393,0,1,0,.786,0V221.7h3.192a.13.13,0,0,1,.131.131v1.242a.644.644,0,0,0,.4.6.722.722,0,0,0,.252.052.656.656,0,0,0,.461-.194l2.983-2.972a.832.832,0,0,0,0-1.3l-2.983-2.972a.654.654,0,0,0-1.117.461v1.242a.13.13,0,0,1-.131.131H128.3v-2.511a7.2,7.2,0,0,0-2.935-5.792,6.438,6.438,0,0,1,2.763-.629h6.049a6.432,6.432,0,0,1,6.421,6.421v14.132a.4.4,0,0,0,.792,0V215.614a7.217,7.217,0,0,0-7.207-7.207Zm-10.468,10.468a.31.31,0,0,1-.309.309h-2.081a3.1,3.1,0,0,1-.587-.613h2.668a.3.3,0,0,1,.309.3Zm-7.182-3.533a1.04,1.04,0,0,0,.225-1.263,9.257,9.257,0,0,1-.6-1.337.12.12,0,0,1,.011-.089.122.122,0,0,1,.068-.068c.131-.031.262-.073.383-.11a.136.136,0,0,1,.163.068,7.8,7.8,0,0,0,1.043,2,.4.4,0,0,0,.488.126.393.393,0,0,0,.215-.456,8.538,8.538,0,0,1-.267-2.322.111.111,0,0,1,.037-.079.124.124,0,0,1,.1-.037l.4.031a.127.127,0,0,1,.1.131,7.5,7.5,0,0,0,.157,1.688.4.4,0,0,0,.4.314.393.393,0,0,0,.372-.351,8.85,8.85,0,0,1,.3-1.546.137.137,0,0,1,.068-.084.1.1,0,0,1,.079-.005c.131.052.257.094.393.141a.124.124,0,0,1,.079.136,7.962,7.962,0,0,0-.294,1.593,2.406,2.406,0,0,0,.43,1.562h-1.7a1.278,1.278,0,0,0-.907.383,4.615,4.615,0,0,0-.844,1.232.468.468,0,0,1-.314.257,7.612,7.612,0,0,0-1.95.7,5.864,5.864,0,0,1,1.352-2.61Zm-.058,8.413a2.547,2.547,0,0,0-1.206,2.333,3.572,3.572,0,0,1-.435-4.487,2.748,2.748,0,0,0,.508-1.268,2.438,2.438,0,0,0-.309-1.332,4.391,4.391,0,0,1,1.777-.849,3.172,3.172,0,0,0,.43,2.474,1.092,1.092,0,0,1-.163.729,1.412,1.412,0,0,1-1.012.5.392.392,0,0,0,.052.781.182.182,0,0,0,.052-.005,2.218,2.218,0,0,0,1.426-.687,2.456,2.456,0,0,1-.031.267,2.07,2.07,0,0,1-.283.744c-.005.005-.005.011-.011.016a2.425,2.425,0,0,1-.8.786Zm-4.2-1.578a4.869,4.869,0,0,1,.8-3.239,2.573,2.573,0,0,0,.4-1.394v-1.782a.174.174,0,0,1,.173-.173h.634a.17.17,0,0,1,.168.126c.1.419.2.954.246,1.174a11.445,11.445,0,0,0-.561,2.044.447.447,0,0,0,.11.341,1.579,1.579,0,0,1,.3,1.017,2.068,2.068,0,0,1-.377.881,4.357,4.357,0,0,0-.713,2.83,2.316,2.316,0,0,1-1.185-1.824Zm2.328,4.885h-.577a.136.136,0,0,1-.126-.089,14.067,14.067,0,0,1-.508-2.144c.1.037.2.068.288.094a5.442,5.442,0,0,0,1.038,1.73,1.909,1.909,0,0,1,.016.294.121.121,0,0,1-.131.115Zm7.286,1.9a1.862,1.862,0,0,1-1.263.236,8.835,8.835,0,0,1-4.382-2.128,2.176,2.176,0,0,1,.6-2.621,1.811,1.811,0,0,0,.073.5,1.7,1.7,0,0,0,.6.818c.005.005.005.011.011.016a.8.8,0,0,1,.026,1.038.393.393,0,0,0,.136.54.4.4,0,0,0,.2.058.4.4,0,0,0,.336-.189,1.8,1.8,0,0,0,.278-.938.961.961,0,0,1,.592,1.185.391.391,0,0,0,.225.508.45.45,0,0,0,.142.026.4.4,0,0,0,.367-.252,1.7,1.7,0,0,0-.052-1.248,2.172,2.172,0,0,0-1.316-1.1,1.185,1.185,0,0,1-.8-.692,1.4,1.4,0,0,1,.063-.875,1.8,1.8,0,0,0,.886.7.341.341,0,0,0,.142.026.394.394,0,0,0,.147-.76,1.076,1.076,0,0,1-.7-.965,2.035,2.035,0,0,0,.1-.356,1.667,1.667,0,0,0,.173.157,5.891,5.891,0,0,0,1.3,1.211.92.92,0,0,1,.1,1.263.394.394,0,0,0,.089.55.377.377,0,0,0,.231.073.4.4,0,0,0,.32-.163,1.716,1.716,0,0,0,.351-1.153,4.444,4.444,0,0,0,.466.152.411.411,0,0,1,.336.356,1.85,1.85,0,0,1-.86,1.593.394.394,0,0,0-.089.55.4.4,0,0,0,.32.163.428.428,0,0,0,.231-.073,3.1,3.1,0,0,0,.7-.708,2.966,2.966,0,0,1-.063.7.394.394,0,0,0,.3.466.468.468,0,0,0,.084.011.391.391,0,0,0,.383-.309,4.063,4.063,0,0,0-.215-2.333c-.005-.068-.005-.136-.016-.2a1.152,1.152,0,0,0-.094-.278,1.045,1.045,0,0,0,.6-.791.395.395,0,0,0-.776-.147c-.063.325-.446.288-.566.272h-.011l-.073-.031a4.072,4.072,0,0,1-1.1-.477,3.566,3.566,0,0,0,.681-.079.4.4,0,0,0,.31-.466.394.394,0,0,0-.466-.3,2.475,2.475,0,0,1-.954.031,1.365,1.365,0,0,0,.791-.954.394.394,0,0,0-.3-.466.388.388,0,0,0-.466.3c-.1.482-.818.556-1.111.571a2.7,2.7,0,0,1-.645-.991.005.005,0,0,0-.005-.005.477.477,0,0,1-.021-.084,1.2,1.2,0,0,0,.194.016,2.024,2.024,0,0,0,1.426-.723.393.393,0,1,0-.561-.551,1.852,1.852,0,0,1-.508.388,1.257,1.257,0,0,0-.037-1.085.4.4,0,0,0-.708.351.553.553,0,0,1-.1.629,1.676,1.676,0,0,1-.356-.419,1.97,1.97,0,0,1,.32-1.819c0-.005.005-.005.005-.011a1.276,1.276,0,0,0,.231-.32,3.989,3.989,0,0,1,.7-1.027.484.484,0,0,1,.346-.147h3.528a.31.31,0,0,1,.309.309.307.307,0,0,1-.309.309h-1.835a1.111,1.111,0,0,0-1.059.744c-.178.535-.136,1.373,1.085,2.328a6.023,6.023,0,0,1,2.579,4.487c-.011,1.169-.011,3.622-1.609,4.607Zm2.181-7.685a7,7,0,0,0-1.059-.4,8.186,8.186,0,0,0-.7-.8,7.189,7.189,0,0,1,2.028.655c.126.063.325.178.231.446-.062.162-.32.189-.5.1Zm8.345-3.287v-.923l2.757,2.752a.136.136,0,0,1,.037.094.144.144,0,0,1-.037.094l-2.757,2.752v-.923a.922.922,0,0,0-.917-.917h-6.133a.986.986,0,0,0-.021-.121,1.225,1.225,0,0,0-.666-.771c-.21-.1-.419-.183-.624-.267a1.081,1.081,0,0,0,.44-.839h7a.946.946,0,0,0,.922-.933Z" transform="translate(-107.842 -196.591)" fill="#6709d4"/>
      <path id="Path_3654" data-name="Path 3654" d="M378.968,44.52c0,2.107,1.735,4.471,4.057,4.471s4.047-2.359,4.047-4.471a4.581,4.581,0,0,0-.037-.466c.409-.446,1.635-1.908,1.379-3.281a2.376,2.376,0,0,0-1.578-1.7c-2.841-1.216-4.844-1.452-5.955-.7a1.848,1.848,0,0,0-.776,1.137,1.929,1.929,0,0,0-1.284.786c-.545.791-.482,2.034.183,3.68-.016.178-.037.362-.037.545Zm4.057,3.685c-1.871,0-3.271-1.945-3.271-3.685a3.149,3.149,0,0,1,.047-.545c.079-.388.414-1.484.975-1.672a1.625,1.625,0,0,0,.875-.645,4.805,4.805,0,0,0,2.427.886,2.59,2.59,0,0,1,2.17,1.468,3.393,3.393,0,0,1,.042.514c0,1.735-1.4,3.68-3.265,3.68Zm-3.554-7.459a1.238,1.238,0,0,1,.975-.482.385.385,0,0,0,.288-.115.392.392,0,0,0,.121-.288,1.068,1.068,0,0,1,.488-.849c.493-.33,1.824-.66,5.189.781a1.637,1.637,0,0,1,1.116,1.127,3.334,3.334,0,0,1-.933,2.317,3.511,3.511,0,0,0-2.532-1.473,3.253,3.253,0,0,1-2.254-.938.479.479,0,0,0-.383-.189.622.622,0,0,0-.1.011.473.473,0,0,0-.362.362.757.757,0,0,1-.556.55,2.1,2.1,0,0,0-1.116,1.148,2.327,2.327,0,0,1,.057-1.961Z" transform="translate(-359.709 -37.935)" fill="#6709d4"/>
      <path id="Path_3655" data-name="Path 3655" d="M192.323,44.363c0,2.112,1.735,4.471,4.057,4.471s4.047-2.359,4.047-4.471a3.976,3.976,0,0,0-.047-.561c.461-1.426.671-4.277-1.709-5.363a4.627,4.627,0,0,0-3.711-.372,2.89,2.89,0,0,0-1.431,1.31,2.456,2.456,0,0,0-1.41,1.185,3.8,3.8,0,0,0,.241,3.255c-.016.183-.037.362-.037.545Zm4.062,3.68c-1.871,0-3.271-1.945-3.271-3.685a3.154,3.154,0,0,1,.047-.545c.079-.388.414-1.484.975-1.672a1.625,1.625,0,0,0,.875-.645,4.806,4.806,0,0,0,2.427.886,2.59,2.59,0,0,1,2.17,1.468,3.336,3.336,0,0,1,.042.514c0,1.735-1.4,3.68-3.265,3.68Zm-3.565-7.113a1.739,1.739,0,0,1,1.069-.839.394.394,0,0,0,.288-.246,2.026,2.026,0,0,1,1.1-1.059,3.932,3.932,0,0,1,3.072.367c1.641.749,1.641,2.527,1.468,3.6a3.563,3.563,0,0,0-2.286-1.153,3.253,3.253,0,0,1-2.254-.938.479.479,0,0,0-.383-.189.622.622,0,0,0-.1.011.481.481,0,0,0-.362.362.757.757,0,0,1-.556.55,2.108,2.108,0,0,0-1.127,1.169,2.359,2.359,0,0,1,.073-1.635Z" transform="translate(-186.033 -37.826)" fill="#6709d4"/>
    </g>
  </g>
</svg>
